<?xml version="1.0" encoding="utf-8"?>
<svg xmlns="http://www.w3.org/2000/svg" data-name="Layer 1" id="Layer_1" viewBox="0 0 1800 2045">
  <defs>
    <style>
      .cls-1, .cls-2, .cls-3 {
        fill: none;
      }

      .cls-4 {
        fill: #ff3600;
      }

      .cls-5 {
        filter: url(#outer-glow-5);
      }

      .cls-6 {
        font-family: MEKSans-Italic, 'MEK Sans';
        font-size: 96.39px;
        font-style: italic;
        letter-spacing: -.1em;
      }

      .cls-6, .cls-7 {
        fill: #2cff05;
      }

      .cls-8 {
        fill: blue;
      }

      .cls-9 {
        clip-path: url(#clippath-1);
      }

      .cls-10 {
        fill: #141414;
      }

      .cls-11 {
        fill: #fff;
      }

      .cls-12 {
        clip-path: url(#clippath);
      }

      .cls-2 {
        stroke-width: 2.09px;
      }

      .cls-2, .cls-3 {
        stroke: #fff;
        stroke-miterlimit: 10;
      }

      .cls-3 {
        stroke-width: 2.17px;
      }
    </style>
    <clipPath id="clippath">
      <rect class="cls-1" height="107.84" width="1700" x="50" y="426.47"/>
    </clipPath>
    <clipPath id="clippath-1">
      <rect class="cls-1" height="107.84" width="1700" x="50" y="318.63"/>
    </clipPath>
    <filter filterUnits="userSpaceOnUse" height="271.67" id="outer-glow-5" width="1700" x="50" y="49.72">
      <feOffset dx="0" dy="0"/>
      <feGaussianBlur result="blur" stdDeviation="50.29"/>
      <feFlood flood-color="#2cff05" flood-opacity="1"/>
      <feComposite in2="blur" operator="in"/>
      <feComposite in="SourceGraphic"/>
    </filter>
  </defs>
  <rect class="cls-10" height="2230.8" width="1824.51" x="-12.26" y="-11.65"/>
  <rect class="cls-4" height="107.84" width="1700" x="50" y="426.47"/>
  <rect class="cls-11" height="107.84" width="1700" x="50" y="1887.49"/>
  <g class="cls-12">
    <text class="cls-6" transform="translate(-92.69 506.82)">
      <tspan x="0" y="0">WEEK ONE - WEEK ONE - WEEK ONE - WEEK ONE - WEEK ONE</tspan>
    </text>
  </g>
  <rect class="cls-8" height="105.6" width="1700" x="50" y="320.87"/>
  <g class="cls-9">
    <g>
      <g>
        <path class="cls-11" d="M311.94,377.44h-25.83v-6.46h25.83v6.46Z"/>
        <path class="cls-11" d="M346.31,348.43h6.46v6.46h-6.46v19.38h-6.46v25.83h-12.92v-25.83h6.46v-32.29h12.92v6.46ZM352.76,354.88h6.46v12.92h-6.46v-12.92ZM378.6,341.97v32.29h-6.46v25.83h-12.92v-25.83h6.46v-19.38h-6.46v-6.46h6.46v-6.46h12.92Z"/>
        <path class="cls-11" d="M417.34,348.43h6.46v25.83h-6.46v25.83h-12.92v-25.83h-12.92v25.83h-12.92v-25.83h6.46v-25.83h6.46v-6.46h25.83v6.46ZM410.89,367.8v-19.37h-12.92v19.37h12.92Z"/>
        <path class="cls-11" d="M469.01,341.97v12.92h-6.46v6.46h-6.46v6.46h6.46v32.29h-12.92v-32.29h-6.46v6.46h-6.46v25.83h-12.92v-25.83h6.46v-32.29h12.92v19.37h6.46v-6.46h6.46v-12.92h12.92Z"/>
        <path class="cls-11" d="M514.21,348.43h-25.83v19.37h19.37v6.46h-25.83v19.37h25.83v6.46h-38.75v-25.83h6.46v-32.29h38.75v6.46Z"/>
        <path class="cls-11" d="M572.24,348.43h6.46v6.46h-12.92v-6.46h-12.92v25.83h-6.46v19.37h12.92v-6.46h12.92v6.46h-6.46v6.46h-25.83v-6.46h-6.46v-19.37h6.46v-25.83h6.46v-6.46h25.83v6.46Z"/>
        <path class="cls-11" d="M614.55,348.43h6.46v25.83h-12.92v-25.83h-12.92v25.83h12.92v6.46h-6.46v6.46h-6.46v-6.46h-6.46v19.37h-12.92v-25.83h6.46v-32.29h32.29v6.46ZM601.64,387.17h6.46v6.46h6.46v6.46h-12.92v-12.92Z"/>
        <path class="cls-11" d="M638.94,361.34v6.46h6.46v6.46h-6.46v25.83h-12.92v-25.83h6.46v-6.46h-6.46v-6.46h-6.46v-19.37h12.92v19.37h6.46ZM658.31,341.97v19.37h-6.46v6.46h-6.46v-25.83h12.92Z"/>
        <path class="cls-11" d="M694.65,348.43h6.46v25.83h-12.92v-25.83h-12.92v25.83h12.92v6.46h-19.37v19.37h-12.92v-25.83h6.46v-32.29h32.29v6.46Z"/>
        <path class="cls-11" d="M744.29,348.52h-19.28v25.74h-6.46v25.83h-12.92v-25.83h6.46v-25.74h-12.92v-6.46h45.11v6.46Z"/>
        <path class="cls-11" d="M775.33,348.43h6.46v25.83h-6.46v19.37h-6.46v6.46h-25.83v-6.46h-6.46v-19.37h6.46v-25.83h6.46v-6.46h25.83v6.46ZM768.87,374.26v-25.83h-12.92v25.83h-6.46v19.37h12.92v-19.37h6.46Z"/>
        <path class="cls-11" d="M842.7,348.43h6.46v6.46h-12.92v-6.46h-12.92v25.83h-6.46v19.37h12.92v-6.46h12.92v6.46h-6.46v6.46h-25.83v-6.46h-6.46v-19.37h6.46v-25.83h6.46v-6.46h25.83v6.46Z"/>
        <path class="cls-11" d="M865.64,361.34v6.46h6.46v6.46h-6.46v25.83h-12.92v-25.83h6.46v-6.46h-6.46v-6.46h-6.46v-19.37h12.92v19.37h6.46ZM885.02,341.97v19.37h-6.46v6.46h-6.46v-25.83h12.92Z"/>
        <path class="cls-11" d="M921.36,348.43h6.46v25.83h-12.92v-25.83h-12.92v25.83h12.92v6.46h-19.37v19.37h-12.92v-25.83h6.46v-32.29h32.29v6.46Z"/>
        <path class="cls-11" d="M971.19,341.97v32.39h-6.46v25.74h-12.92v-25.74h-12.92v25.74h-13.01v-25.74h6.55v-32.39h12.92v25.83h12.82v-25.83h13.01Z"/>
        <path class="cls-11" d="M1016.4,348.43h-25.83v19.37h19.37v6.46h-25.83v19.37h25.83v6.46h-38.75v-25.83h6.46v-32.29h38.75v6.46Z"/>
        <path class="cls-11" d="M1052.25,348.43h6.46v25.83h-12.92v-25.83h-12.92v25.83h12.92v6.46h-6.46v6.46h-6.46v-6.46h-6.46v19.37h-12.92v-25.83h6.46v-32.29h32.29v6.46ZM1039.34,387.17h6.46v6.46h6.46v6.46h-12.92v-12.92Z"/>
        <path class="cls-11" d="M1096.01,348.43h6.46v25.83h-12.92v-25.83h-12.92v25.83h12.92v6.46h-19.37v19.37h-12.92v-25.83h6.46v-32.29h32.29v6.46Z"/>
        <path class="cls-11" d="M1145.85,341.97v32.39h-6.46v19.38h-6.55v6.36h-25.74v-6.36h-6.55v-19.38h6.55v-32.39h12.92v32.39h-6.46v19.38h12.92v-19.38h6.36v-32.39h13.01Z"/>
        <path class="cls-11" d="M1165.22,348.43h6.46v6.46h-6.46v19.38h-6.46v25.83h-12.92v-25.83h6.46v-32.29h12.92v6.46ZM1191.05,341.97v32.29h-6.46v25.83h-12.92v-25.83h6.46v-12.92h-6.46v-6.46h6.46v-12.92h12.92Z"/>
        <path class="cls-11" d="M1236.26,341.97v12.92h-6.46v6.46h-6.46v6.46h6.46v32.29h-12.92v-32.29h-6.46v6.46h-6.46v25.83h-12.92v-25.83h6.46v-32.29h12.92v19.37h6.46v-6.46h6.46v-12.92h12.92Z"/>
        <path class="cls-11" d="M1297.17,348.43h6.46v25.83h-6.46v25.83h-12.92v-25.83h-12.92v25.83h-12.92v-25.83h6.46v-25.83h6.46v-6.46h25.83v6.46ZM1290.72,367.8v-19.37h-12.92v19.37h12.92Z"/>
        <path class="cls-11" d="M1335.92,354.88v-6.36h-12.82v25.83h-6.46v19.38h12.92v-25.93h19.38v6.55h-6.46v19.38h-6.55v6.36h-25.74v-6.36h-6.55v-19.38h6.55v-25.83h6.46v-6.55h25.83v6.55h6.46v6.36h-13.01Z"/>
        <path class="cls-11" d="M1387.68,348.43h6.46v25.83h-6.46v25.83h-12.92v-25.83h-12.92v25.83h-12.92v-25.83h6.46v-25.83h6.46v-6.46h25.83v6.46ZM1381.22,367.8v-19.37h-12.92v19.37h12.92Z"/>
        <path class="cls-11" d="M1426.43,348.43h-6.46v25.83h-6.46v19.37h6.46v6.46h-25.83v-6.46h6.46v-19.37h6.46v-25.83h-6.46v-6.46h25.83v6.46Z"/>
        <path class="cls-11" d="M1445.8,348.43h6.46v6.46h-6.46v19.38h-6.46v25.83h-12.92v-25.83h6.46v-32.29h12.92v6.46ZM1471.64,341.97v32.29h-6.46v25.83h-12.92v-25.83h6.46v-12.92h-6.46v-6.46h6.46v-12.92h12.92Z"/>
        <path class="cls-11" d="M1521.28,377.44h-25.83v-6.46h25.83v6.46Z"/>
      </g>
      <g>
        <path class="cls-11" d="M1521.41,377.44h-25.83v-6.46h25.83v6.46Z"/>
        <path class="cls-11" d="M1555.78,348.43h6.46v6.46h-6.46v19.38h-6.46v25.83h-12.92v-25.83h6.46v-32.29h12.92v6.46ZM1562.24,354.88h6.46v12.92h-6.46v-12.92ZM1588.07,341.97v32.29h-6.46v25.83h-12.92v-25.83h6.46v-19.38h-6.46v-6.46h6.46v-6.46h12.92Z"/>
        <path class="cls-11" d="M1626.82,348.43h6.46v25.83h-6.46v25.83h-12.92v-25.83h-12.92v25.83h-12.92v-25.83h6.46v-25.83h6.46v-6.46h25.83v6.46ZM1620.36,367.8v-19.37h-12.92v19.37h12.92Z"/>
        <path class="cls-11" d="M1678.49,341.97v12.92h-6.46v6.46h-6.46v6.46h6.46v32.29h-12.92v-32.29h-6.46v6.46h-6.46v25.83h-12.92v-25.83h6.46v-32.29h12.92v19.37h6.46v-6.46h6.46v-12.92h12.92Z"/>
        <path class="cls-11" d="M1723.69,348.43h-25.83v19.37h19.37v6.46h-25.83v19.37h25.83v6.46h-38.75v-25.83h6.46v-32.29h38.75v6.46Z"/>
        <path class="cls-11" d="M1781.72,348.43h6.46v6.46h-12.92v-6.46h-12.92v25.83h-6.46v19.37h12.92v-6.46h12.92v6.46h-6.46v6.46h-25.83v-6.46h-6.46v-19.37h6.46v-25.83h6.46v-6.46h25.83v6.46Z"/>
        <path class="cls-11" d="M1824.03,348.43h6.46v25.83h-12.92v-25.83h-12.92v25.83h12.92v6.46h-6.46v6.46h-6.46v-6.46h-6.46v19.37h-12.92v-25.83h6.46v-32.29h32.29v6.46ZM1811.11,387.17h6.46v6.46h6.46v6.46h-12.92v-12.92Z"/>
      </g>
      <g>
        <path class="cls-11" d="M26.72,341.97v12.92h-6.46v6.46h-6.46v6.46h6.46v32.29H7.35v-32.29H.89v6.46h-6.46v25.83h-12.92v-25.83h6.46v-32.29H.89v19.37h6.46v-6.46h6.46v-12.92h12.92Z"/>
        <path class="cls-11" d="M87.64,348.43h6.46v25.83h-6.46v25.83h-12.92v-25.83h-12.92v25.83h-12.92v-25.83h6.46v-25.83h6.46v-6.46h25.83v6.46ZM81.18,367.8v-19.37h-12.92v19.37h12.92Z"/>
        <path class="cls-11" d="M126.38,354.88v-6.36h-12.82v25.83h-6.46v19.38h12.92v-25.93h19.38v6.55h-6.46v19.38h-6.55v6.36h-25.74v-6.36h-6.55v-19.38h6.55v-25.83h6.46v-6.55h25.83v6.55h6.46v6.36h-13.01Z"/>
        <path class="cls-11" d="M178.14,348.43h6.46v25.83h-6.46v25.83h-12.92v-25.83h-12.92v25.83h-12.92v-25.83h6.46v-25.83h6.46v-6.46h25.83v6.46ZM171.69,367.8v-19.37h-12.92v19.37h12.92Z"/>
        <path class="cls-11" d="M216.89,348.43h-6.46v25.83h-6.46v19.37h6.46v6.46h-25.83v-6.46h6.46v-19.37h6.46v-25.83h-6.46v-6.46h25.83v6.46Z"/>
        <path class="cls-11" d="M236.27,348.43h6.46v6.46h-6.46v19.38h-6.46v25.83h-12.92v-25.83h6.46v-32.29h12.92v6.46ZM262.1,341.97v32.29h-6.46v25.83h-12.92v-25.83h6.46v-12.92h-6.46v-6.46h6.46v-12.92h12.92Z"/>
        <path class="cls-11" d="M311.74,377.44h-25.83v-6.46h25.83v6.46Z"/>
      </g>
    </g>
  </g>
  <line class="cls-3" x1="50" x2="1750" y1="426.47" y2="426.47"/>
  <g class="cls-5">
    <polygon class="cls-7" points="223.25 148.88 223.25 99.48 198.55 99.48 198.55 74.42 173.85 74.42 173.85 49.72 124.28 49.72 124.28 74.42 99.76 74.42 99.76 99.48 75.07 99.48 75.07 173.21 99.76 173.21 99.76 198.27 124.46 198.27 124.46 222.6 149.16 222.6 149.16 272.37 99.76 272.37 99.76 247.3 75.07 247.3 75.07 222.6 50 222.6 50 272.37 75.07 272.37 75.07 296.69 99.58 296.69 99.58 321.39 124.28 321.39 148.97 321.39 148.97 296.69 173.49 296.69 173.49 272.37 198.55 272.37 198.55 198.27 173.49 198.27 173.49 173.21 149.16 173.21 149.16 148.88 124.46 148.88 124.46 99.48 173.49 99.48 173.49 123.81 198.55 123.81 198.55 148.88 223.25 148.88"/>
    <path class="cls-7" d="M668.15,272h-49.4v-74.09h24.7v-98.79h49.39v24.7h49.4v-24.7h-24.7v-24.7h-98.79v24.7h-24.7v98.79h-24.68v-98.79h-24.7v-24.7h-98.79v24.7h-24.7v98.79h-24.69v-123.49h-49.76v98.79h-49.03v-98.79h-49.39v123.86h-25.07v98.42h49.76v-98.42h49.4v98.42h49.39v-98.42h24.69v98.42h49.4v-98.79h49.4v98.79h49.39v-98.79h24.69v74.09h24.7v24.7h98.79v-24.7h24.7v-24.7h-49.4v24.7ZM519.97,173.21h-49.4v-74.09h49.4v74.09Z"/>
    <polygon class="cls-7" points="915.13 74.42 865.73 74.42 865.73 123.81 841.03 123.81 841.03 148.51 816.33 148.51 816.33 74.42 766.94 74.42 766.94 197.9 742.24 197.9 742.24 296.69 791.64 296.69 791.64 197.9 816.33 197.9 816.33 173.21 841.03 173.21 841.03 296.69 890.43 296.69 890.43 173.21 865.73 173.21 865.73 148.51 890.43 148.51 890.43 123.81 915.13 123.81 915.13 74.42"/>
    <path class="cls-7" d="M1651.21,99.12v-24.7h-49.4v123.49h-24.68v-98.79h-24.7v-24.7h-98.79v24.7h-24.7v98.79h-24.69v-123.49h-49.76v98.79h-49.03v-98.79h-49.4v.37h-168.08v24.33h-24.68v-24.7h-98.79v24.7h-24.7v98.79h-24.7v98.79h49.39v-98.79h49.4v98.79h49.4v-98.79h24.7v-98.42h49.38v98.42h-24.7v98.79h49.39v-98.79h24.7v-98.42h69.29v98.79h-25.07v98.42h49.76v-98.42h49.4v98.42h49.4v-98.42h24.69v73.72h24.7v24.7h98.79v-24.7h24.7v-74.09h24.69v98.79h49.39v-98.79h24.7v-74.09h24.7v-24.7h-24.7ZM1038.6,173.21h-49.39v-74.09h49.39v74.09ZM1527.73,197.9h-24.7v74.09h-49.4v-74.09h24.7v-98.79h49.4v98.79Z"/>
    <polygon class="cls-7" points="1700.6 74.42 1700.6 123.81 1675.91 123.81 1675.91 148.51 1700.6 148.51 1700.6 197.9 1675.91 197.9 1675.91 296.69 1725.3 296.69 1725.3 197.9 1750 197.9 1750 74.42 1700.6 74.42"/>
  </g>
  <line class="cls-3" x1="50" x2="1750" y1="321.39" y2="321.39"/>
  <line class="cls-3" x1="50" x2="1750" y1="534.31" y2="534.31"/>
  <g>
    <g>
      <g>
        <rect class="cls-7" height="18.68" width="18.68" x="68.68" y="623.26"/>
        <rect class="cls-7" height="18.68" width="18.68" x="50" y="641.95"/>
        <rect class="cls-7" height="18.68" width="18.68" x="106.04" y="623.26"/>
        <rect class="cls-7" height="18.68" width="18.68" x="87.36" y="641.95"/>
        <rect class="cls-7" height="18.68" width="18.68" x="143.41" y="623.26"/>
        <rect class="cls-7" height="18.68" width="18.68" x="124.72" y="641.95"/>
        <rect class="cls-7" height="18.68" width="18.68" x="180.77" y="623.26"/>
        <rect class="cls-7" height="18.68" width="18.68" x="162.09" y="641.95"/>
        <rect class="cls-7" height="18.68" width="18.68" x="218.13" y="623.26"/>
        <rect class="cls-7" height="18.68" width="18.68" x="199.45" y="641.95"/>
        <rect class="cls-7" height="18.68" width="18.68" x="255.49" y="623.26"/>
        <rect class="cls-7" height="18.68" width="18.68" x="236.81" y="641.95"/>
        <rect class="cls-7" height="18.68" width="18.68" x="292.85" y="623.26"/>
        <rect class="cls-7" height="18.68" width="18.68" x="274.17" y="641.95"/>
        <rect class="cls-7" height="18.68" width="18.68" x="330.22" y="623.26"/>
        <rect class="cls-7" height="18.68" width="18.68" x="311.54" y="641.95"/>
        <rect class="cls-7" height="18.68" width="18.68" x="348.9" y="641.95"/>
      </g>
      <g>
        <rect class="cls-7" height="18.68" width="18.68" x="367.58" y="623.26"/>
        <rect class="cls-7" height="18.68" width="18.68" x="348.9" y="641.95"/>
        <rect class="cls-7" height="18.68" width="18.68" x="404.94" y="623.26"/>
        <rect class="cls-7" height="18.68" width="18.68" x="386.26" y="641.95"/>
        <rect class="cls-7" height="18.68" width="18.68" x="442.3" y="623.26"/>
        <rect class="cls-7" height="18.68" width="18.68" x="423.62" y="641.95"/>
        <rect class="cls-7" height="18.68" width="18.68" x="479.66" y="623.26"/>
        <rect class="cls-7" height="18.68" width="18.68" x="460.98" y="641.95"/>
        <rect class="cls-7" height="18.68" width="18.68" x="517.03" y="623.26"/>
        <rect class="cls-7" height="18.68" width="18.68" x="498.35" y="641.95"/>
        <rect class="cls-7" height="18.68" width="18.68" x="554.39" y="623.26"/>
        <rect class="cls-7" height="18.68" width="18.68" x="535.71" y="641.95"/>
        <rect class="cls-7" height="18.68" width="18.68" x="591.75" y="623.26"/>
        <rect class="cls-7" height="18.68" width="18.68" x="573.07" y="641.95"/>
      </g>
    </g>
    <g>
      <g>
        <rect class="cls-7" height="18.68" width="18.68" x="1187.89" y="623.26"/>
        <rect class="cls-7" height="18.68" width="18.68" x="1225.25" y="623.26"/>
        <rect class="cls-7" height="18.68" width="18.68" x="1206.57" y="641.95"/>
        <rect class="cls-7" height="18.68" width="18.68" x="1262.62" y="623.26"/>
        <rect class="cls-7" height="18.68" width="18.68" x="1243.94" y="641.95"/>
        <rect class="cls-7" height="18.68" width="18.68" x="1299.98" y="623.26"/>
        <rect class="cls-7" height="18.68" width="18.68" x="1281.3" y="641.95"/>
        <rect class="cls-7" height="18.68" width="18.68" x="1337.34" y="623.26"/>
        <rect class="cls-7" height="18.68" width="18.68" x="1318.66" y="641.95"/>
        <rect class="cls-7" height="18.68" width="18.68" x="1374.7" y="623.26"/>
        <rect class="cls-7" height="18.68" width="18.68" x="1356.02" y="641.95"/>
        <rect class="cls-7" height="18.68" width="18.68" x="1412.07" y="623.26"/>
        <rect class="cls-7" height="18.68" width="18.68" x="1393.38" y="641.95"/>
        <rect class="cls-7" height="18.68" width="18.68" x="1430.75" y="641.95"/>
      </g>
      <g>
        <rect class="cls-7" height="18.68" width="18.68" x="1449.43" y="623.26"/>
        <rect class="cls-7" height="18.68" width="18.68" x="1430.75" y="641.95"/>
        <rect class="cls-7" height="18.68" width="18.68" x="1486.79" y="623.26"/>
        <rect class="cls-7" height="18.68" width="18.68" x="1468.11" y="641.95"/>
        <rect class="cls-7" height="18.68" width="18.68" x="1524.15" y="623.26"/>
        <rect class="cls-7" height="18.68" width="18.68" x="1505.47" y="641.95"/>
        <rect class="cls-7" height="18.68" width="18.68" x="1561.51" y="623.26"/>
        <rect class="cls-7" height="18.68" width="18.68" x="1542.83" y="641.95"/>
        <rect class="cls-7" height="18.68" width="18.68" x="1598.88" y="623.26"/>
        <rect class="cls-7" height="18.68" width="18.68" x="1580.2" y="641.95"/>
        <rect class="cls-7" height="18.68" width="18.68" x="1636.24" y="623.26"/>
        <rect class="cls-7" height="18.68" width="18.68" x="1617.56" y="641.95"/>
        <rect class="cls-7" height="18.68" width="18.68" x="1673.6" y="623.26"/>
        <rect class="cls-7" height="18.68" width="18.68" x="1654.92" y="641.95"/>
        <rect class="cls-7" height="18.68" width="18.68" x="1710.96" y="623.26"/>
        <rect class="cls-7" height="18.68" width="18.68" x="1692.28" y="641.95"/>
        <rect class="cls-7" height="18.68" width="18.68" x="1729.64" y="641.95"/>
      </g>
    </g>
  </g>
  <rect class="cls-2" height="1945.61" width="1700" x="50" y="49.72"/>
  <g>
    <g>
      <rect class="cls-7" height="18.68" width="18.68" x="368.42" y="1011.42"/>
      <rect class="cls-7" height="18.68" width="18.68" x="387.1" y="1030.1"/>
      <rect class="cls-7" height="18.68" width="18.68" x="349.73" y="1030.1"/>
      <rect class="cls-7" height="18.68" width="18.68" x="312.37" y="1030.1"/>
      <rect class="cls-7" height="18.68" width="18.68" x="293.69" y="1030.1"/>
      <rect class="cls-7" height="18.68" width="18.68" x="349.73" y="992.74"/>
      <rect class="cls-7" height="18.68" width="18.68" x="349.73" y="1067.46"/>
      <rect class="cls-7" height="18.68" width="18.68" x="331.05" y="1030.1"/>
      <rect class="cls-7" height="18.68" width="18.68" x="275.01" y="1030.1"/>
      <rect class="cls-7" height="18.68" width="18.68" x="237.65" y="1030.1"/>
      <rect class="cls-7" height="18.68" width="18.68" x="218.97" y="1030.1"/>
      <rect class="cls-7" height="18.68" width="18.68" x="256.33" y="1030.1"/>
      <rect class="cls-7" height="18.68" width="18.68" x="368.42" y="1048.78"/>
    </g>
    <g>
      <rect class="cls-7" height="18.68" transform="translate(2844.49 2116.25) rotate(180)" width="18.68" x="1412.9" y="1048.78"/>
      <rect class="cls-7" height="18.68" transform="translate(2807.12 2078.88) rotate(180)" width="18.68" x="1394.22" y="1030.1"/>
      <rect class="cls-7" height="18.68" transform="translate(2881.85 2078.88) rotate(180)" width="18.68" x="1431.58" y="1030.1"/>
      <rect class="cls-7" height="18.68" transform="translate(2956.57 2078.88) rotate(180)" width="18.68" x="1468.95" y="1030.1"/>
      <rect class="cls-7" height="18.68" transform="translate(2993.94 2078.88) rotate(180)" width="18.68" x="1487.63" y="1030.1"/>
      <rect class="cls-7" height="18.68" transform="translate(2881.85 2153.61) rotate(180)" width="18.68" x="1431.58" y="1067.46"/>
      <rect class="cls-7" height="18.68" transform="translate(2881.85 2004.16) rotate(180)" width="18.68" x="1431.58" y="992.74"/>
      <rect class="cls-7" height="18.68" transform="translate(2919.21 2078.88) rotate(180)" width="18.68" x="1450.27" y="1030.1"/>
      <rect class="cls-7" height="18.68" transform="translate(3031.3 2078.88) rotate(180)" width="18.68" x="1506.31" y="1030.1"/>
      <rect class="cls-7" height="18.68" transform="translate(3106.02 2078.88) rotate(180)" width="18.68" x="1543.67" y="1030.1"/>
      <rect class="cls-7" height="18.68" transform="translate(3143.38 2078.88) rotate(180)" width="18.68" x="1562.35" y="1030.1"/>
      <rect class="cls-7" height="18.68" transform="translate(3068.66 2078.88) rotate(180)" width="18.68" x="1524.99" y="1030.1"/>
      <rect class="cls-7" height="18.68" transform="translate(2844.49 2041.52) rotate(180)" width="18.68" x="1412.9" y="1011.42"/>
    </g>
  </g>
</svg>