<?xml version="1.0" encoding="utf-8"?>
<svg xmlns="http://www.w3.org/2000/svg" data-name="Layer 1" id="Layer_1" viewBox="0 0 575.78 575.78">
  <defs>
    <style>
      .cls-1 {
        fill: #141414;
      }

      .cls-2 {
        fill: #fff;
      }
    </style>
  </defs>
  <g>
    <polygon class="cls-2" points="539.8 143.95 539.8 179.93 539.8 215.92 539.8 251.91 539.8 287.89 539.8 323.88 539.8 359.87 539.8 395.85 539.8 431.84 539.8 467.83 539.8 503.81 539.8 539.8 503.81 539.8 467.83 539.8 431.84 539.8 395.85 539.8 359.87 539.8 323.88 539.8 287.89 539.8 251.91 539.8 215.92 539.8 179.93 539.8 143.95 539.8 107.96 539.8 71.97 539.8 35.99 539.8 35.99 503.81 35.99 467.83 35.99 431.84 35.99 395.85 35.99 359.87 35.99 323.88 35.99 287.89 35.99 251.91 35.99 215.92 35.99 179.93 35.99 143.95 35.99 107.96 35.99 71.97 35.99 35.99 71.97 35.99 107.96 35.99 143.95 35.99 179.93 35.99 215.92 35.99 251.91 35.99 287.89 35.99 323.88 35.99 359.87 35.99 395.85 35.99 431.84 35.99 431.84 0 395.85 0 359.87 0 323.88 0 287.89 0 251.91 0 215.92 0 179.93 0 143.95 0 107.96 0 71.97 0 35.99 0 0 0 0 35.99 0 71.97 0 107.96 0 143.95 0 179.93 0 215.92 0 251.91 0 287.89 0 323.88 0 359.87 0 395.85 0 431.84 0 467.83 0 503.81 0 539.8 0 575.78 35.99 575.78 71.97 575.78 107.96 575.78 143.95 575.78 179.93 575.78 215.92 575.78 251.91 575.78 287.89 575.78 323.88 575.78 359.87 575.78 395.85 575.78 431.84 575.78 467.83 575.78 503.81 575.78 539.8 575.78 575.78 575.78 575.78 539.8 575.78 503.81 575.78 467.83 575.78 431.84 575.78 395.85 575.78 359.87 575.78 323.88 575.78 287.89 575.78 251.91 575.78 215.92 575.78 179.93 575.78 143.95 539.8 143.95"/>
    <polygon class="cls-2" points="431.84 107.96 431.84 143.95 467.83 143.95 503.81 143.95 539.8 143.95 539.8 107.96 503.81 107.96 503.81 71.97 467.83 71.97 467.83 35.99 431.84 35.99 431.84 71.97 431.84 107.96"/>
  </g>
  <polygon class="cls-1" points="431.84 0 431.84 35.99 467.83 35.99 467.83 71.97 503.81 71.97 503.81 107.96 539.8 107.96 539.8 143.95 575.78 143.95 575.78 0 431.84 0"/>
</svg>